# xmcd CD database file
#
# Track frame offsets:
#	150
#	19651
#	42436
#	65637
#	81759
#	103358
#	123547
#	141457
#	159904
#	181346
#	207636
#	226894
#	241697
#	263134
#
# Disc length: 3747 seconds
#
# Revision: 1
# Processed by: cddbd v1.5.2PL0 Copyright (c) Steve Scherf et al.
# Submitted via: CDex 1.72
#
DISCID=c60ea10e
DTITLE=Barber, Chris (USA-08-This Moment To Be Free-jzz) - This Moment To Be Free
DYEAR=1900
DGENRE=Jazz
TTITLE0=My Foolish Heart
TTITLE1=Love For Sale
TTITLE2=Going In
TTITLE3=Blackbird
TTITLE4=What Is It
TTITLE5=Nature Boy
TTITLE6=Devil May Care
TTITLE7=What A Little Moonlight Can Do
TTITLE8=Calling You
TTITLE9=I Got It Bad
TTITLE10=I Only Have Eyes For You
TTITLE11=Be Sure
TTITLE12=Family Line
TTITLE13=Sunny
EXTD=
EXTT0=
EXTT1=
EXTT2=
EXTT3=
EXTT4=
EXTT5=
EXTT6=
EXTT7=
EXTT8=
EXTT9=
EXTT10=
EXTT11=
EXTT12=
EXTT13=
PLAYORDER=
